<svg xmlns="http://www.w3.org/2000/svg" width="1024" height="1024" viewBox="0 0 1024 1024">
<g>
<path d="M 0.00 0.00 L 1024.00 0.00 L 1024.00 1024.00 L 0.00 1024.00 ZM 543.72 608.51 C561.26,612.96 581.78,610.54 597.34,602.18 C604.57,598.30 620.50,583.03 619.75,580.70 C619.43,579.71 600.50,567.36 596.25,565.37 C595.54,565.04 593.12,566.88 590.63,569.64 C585.92,574.88 579.24,579.00 575.46,579.00 C574.17,579.00 572.84,579.45 572.50,580.00 C572.16,580.55 568.16,581.00 563.61,581.00 C546.53,581.00 533.68,571.77 530.54,557.25 L 529.84 554.00 L 573.67 553.88 C597.78,553.82 618.85,553.48 620.50,553.12 C623.33,552.52 623.55,552.12 624.39,545.99 C624.98,541.65 624.87,536.10 624.04,529.25 C620.66,501.14 604.96,481.80 579.47,474.34 C575.71,473.25 568.96,472.47 561.24,472.24 C549.65,471.90 548.49,472.06 539.74,475.03 C526.51,479.52 521.49,482.51 512.90,491.04 C507.00,496.89 504.38,500.47 501.15,507.07 C498.87,511.75 497.00,516.12 497.00,516.80 C497.00,517.47 496.60,518.81 496.11,519.76 C492.99,525.83 492.22,542.21 494.47,554.50 C497.44,570.70 502.50,580.57 513.47,591.51 C523.06,601.08 530.14,605.06 543.72,608.51 ZM 744.58 606.26 C745.10,607.90 746.56,608.02 761.82,607.77 L 778.50 607.50 L 779.05 567.00 C779.66,522.50 780.05,519.43 785.95,512.71 C795.74,501.56 817.41,501.01 827.73,511.64 C830.06,514.03 832.21,517.23 832.51,518.75 C832.82,520.26 833.50,522.88 834.03,524.57 C834.59,526.33 835.00,544.79 835.00,567.84 L 835.00 608.05 L 869.50 607.50 L 869.48 562.00 C869.47,520.49 869.30,515.93 867.59,510.00 C860.53,485.56 844.06,473.22 817.20,472.24 C808.72,471.94 805.79,472.24 800.59,473.97 C793.83,476.22 786.21,480.60 781.75,484.79 L 779.00 487.37 L 779.00 483.75 C779.00,481.76 778.56,478.98 778.02,477.57 L 777.05 475.00 L 761.58 475.00 C751.80,475.00 745.88,475.39 745.47,476.06 C744.66,477.36 743.80,603.80 744.58,606.26 ZM 247.69 607.36 C248.07,607.74 255.83,607.92 264.94,607.77 L 281.50 607.50 L 282.00 565.50 C282.55,519.20 282.42,520.14 289.12,512.51 C293.92,507.05 301.37,504.00 309.90,504.00 C321.63,504.00 329.87,508.21 333.65,516.14 C337.67,524.57 338.00,528.59 338.00,569.04 L 338.00 608.05 L 371.50 607.50 L 371.50 560.50 C371.50,513.51 371.50,513.50 369.10,506.50 C367.78,502.65 365.27,497.25 363.52,494.49 C354.48,480.27 338.04,472.00 318.80,472.00 C304.72,472.00 292.84,476.26 285.56,483.91 C283.95,485.61 282.28,487.00 281.86,487.00 C281.44,487.00 280.96,484.41 280.80,481.25 L 280.50 475.50 L 263.75 475.23 L 247.00 474.95 L 247.00 540.81 C247.00,577.03 247.31,606.98 247.69,607.36 ZM 446.50 608.46 C454.71,610.29 459.87,610.28 469.92,608.40 C476.52,607.16 479.58,606.75 480.89,605.01 C482.03,603.52 481.88,601.06 481.59,596.27 C481.56,595.77 481.53,595.25 481.50,594.69 C481.18,589.09 480.67,582.54 480.38,580.15 C480.15,578.27 480.15,577.15 479.58,576.62 C478.80,575.88 476.91,576.31 471.76,577.48 C471.07,577.64 470.32,577.81 469.50,577.99 C458.86,580.39 448.87,576.51 445.12,568.54 C443.11,564.25 443.00,562.52 443.00,534.03 L 443.00 504.05 L 478.50 503.50 L 478.50 475.50 L 443.00 474.95 L 443.00 437.00 L 412.26 437.00 L 411.58 441.21 C411.21,443.53 410.44,449.72 409.86,454.96 C409.28,460.21 408.51,466.75 408.15,469.50 L 407.50 474.50 L 388.50 475.50 L 388.50 503.50 L 397.75 503.79 C402.84,503.95 407.07,504.17 407.16,504.29 C407.25,504.40 407.64,520.03 408.02,539.00 C408.61,567.53 409.02,574.25 410.39,577.84 C417.23,595.71 427.19,604.16 446.50,608.46 ZM 646.62 606.44 C647.15,607.84 649.36,608.01 663.87,607.77 L 680.50 607.50 L 681.50 526.50 L 685.00 520.03 C688.93,512.75 694.70,507.73 701.29,505.85 C705.06,504.78 715.37,504.49 723.50,505.23 L 726.50 505.50 L 726.78 490.01 C727.02,476.31 726.85,474.37 725.34,473.26 C723.36,471.81 705.01,471.49 702.24,472.85 C701.28,473.32 698.70,474.55 696.50,475.59 C694.30,476.63 689.97,480.02 686.88,483.13 L 681.26 488.78 L 680.64 482.81 C680.29,479.52 679.76,476.42 679.45,475.91 C679.14,475.41 671.48,475.00 662.44,475.00 L 646.00 475.00 L 646.00 539.92 C646.00,575.62 646.28,605.56 646.62,606.44 ZM 182.47 606.77 C182.84,607.75 186.86,607.98 199.73,607.77 L 216.50 607.50 L 216.50 475.50 L 182.50 475.50 L 182.24 540.50 C182.10,576.25 182.20,606.07 182.47,606.77 ZM 188.41 453.57 C197.90,457.89 207.97,456.48 215.62,449.76 C223.01,443.27 224.92,433.63 220.63,424.50 C217.81,418.50 216.02,416.79 209.67,414.07 C196.83,408.57 181.76,414.45 177.63,426.59 C175.57,432.61 175.57,436.72 177.61,441.63 C180.31,448.08 183.07,451.14 188.41,453.57 ZM 588.80 526.44 C587.13,526.98 535.27,527.67 532.15,527.19 C530.03,526.87 529.87,526.48 530.48,523.17 C532.07,514.44 539.14,506.60 548.67,503.00 C553.50,501.17 555.87,500.88 562.50,501.29 C574.41,502.02 580.14,505.04 585.46,513.39 C589.17,519.23 590.85,525.78 588.80,526.44 Z" fill="rgb(1,18,60)"/>
<path d="M 684.87 485.15 C684.09,486.16 683.43,487.16 682.95,488.11 C681.85,490.25 680.86,492.00 680.73,492.00 C680.60,492.00 680.49,488.96 680.49,485.25 C680.48,484.65 680.49,484.08 680.49,483.54 C680.49,482.79 680.49,482.10 680.49,481.48 C680.54,481.91 680.59,482.36 680.64,482.81 L 681.26 488.78 ZM 679.83 477.24 C679.73,477.06 679.62,476.90 679.50,476.75 C678.98,476.13 678.21,475.73 677.05,475.47 C678.48,475.60 679.35,475.75 679.45,475.91 C679.55,476.09 679.69,476.56 679.83,477.24 ZM 696.50 475.59 C698.70,474.55 701.28,473.32 702.24,472.85 C701.28,473.32 698.81,474.52 696.74,475.52 C696.19,475.78 695.64,476.07 695.09,476.39 C695.62,476.05 696.09,475.78 696.50,475.59 Z" fill="rgb(73,87,114)"/>
<path d="M 543.72 608.51 C530.14,605.06 523.06,601.08 513.47,591.51 C502.50,580.57 497.44,570.70 494.47,554.50 C492.22,542.21 492.99,525.83 496.11,519.76 C496.60,518.81 497.00,517.47 497.00,516.80 C497.00,516.12 498.87,511.75 501.15,507.07 C504.38,500.47 507.00,496.89 512.90,491.04 C521.49,482.51 526.51,479.52 539.74,475.03 C548.49,472.06 549.65,471.90 561.24,472.24 C568.96,472.47 575.71,473.25 579.47,474.34 C604.96,481.80 620.66,501.14 624.04,529.25 C624.87,536.10 624.98,541.65 624.39,545.99 C623.55,552.12 623.33,552.52 620.50,553.12 C618.85,553.48 597.78,553.82 573.67,553.88 L 529.84 554.00 L 530.54 557.25 C533.68,571.77 546.53,581.00 563.61,581.00 C568.16,581.00 572.16,580.55 572.50,580.00 C572.84,579.45 574.17,579.00 575.46,579.00 C579.24,579.00 585.92,574.88 590.63,569.64 C593.12,566.88 595.54,565.04 596.25,565.37 C600.50,567.36 619.43,579.71 619.75,580.70 C620.50,583.03 604.57,598.30 597.34,602.18 C581.78,610.54 561.26,612.96 543.72,608.51 ZM 588.80 526.44 C590.85,525.78 589.17,519.23 585.46,513.39 C580.14,505.04 574.41,502.02 562.50,501.29 C555.87,500.88 553.50,501.17 548.67,503.00 C539.14,506.60 532.07,514.44 530.48,523.17 C529.87,526.48 530.03,526.87 532.15,527.19 C535.27,527.67 587.13,526.98 588.80,526.44 ZM 446.50 608.46 C427.19,604.16 417.23,595.71 410.39,577.84 C409.02,574.25 408.61,567.53 408.02,539.00 C407.64,520.03 407.25,504.40 407.16,504.29 C407.07,504.17 402.84,503.95 397.75,503.79 L 388.50 503.50 L 388.50 489.50 L 388.50 475.50 L 398.00 475.00 L 407.50 474.50 L 408.15 469.50 C408.51,466.75 409.28,460.21 409.86,454.96 C410.44,449.72 411.21,443.53 411.58,441.21 L 412.26 437.00 L 427.63 437.00 L 443.00 437.00 L 443.00 455.98 L 443.00 474.95 L 460.75 475.23 L 478.50 475.50 L 478.50 489.50 L 478.50 503.50 L 460.75 503.77 L 443.00 504.05 L 443.00 534.03 C443.00,562.52 443.11,564.25 445.12,568.54 C448.87,576.51 458.86,580.39 469.50,577.99 C480.71,575.48 479.79,575.29 480.38,580.15 C480.67,582.54 481.18,589.09 481.50,594.69 C482.19,606.69 482.77,605.99 469.92,608.40 C459.87,610.28 454.71,610.29 446.50,608.46 ZM 182.47 606.77 C182.20,606.07 182.10,576.25 182.24,540.50 L 182.50 475.50 L 199.50 475.50 L 216.50 475.50 L 216.50 541.50 L 216.50 607.50 L 199.73 607.77 C186.86,607.98 182.84,607.75 182.47,606.77 ZM 247.69 607.36 C247.31,606.98 247.00,577.03 247.00,540.81 L 247.00 474.95 L 263.75 475.23 L 280.50 475.50 L 280.80 481.25 C280.96,484.41 281.44,487.00 281.86,487.00 C282.28,487.00 283.95,485.61 285.56,483.91 C292.84,476.26 304.72,472.00 318.80,472.00 C338.04,472.00 354.48,480.27 363.52,494.49 C365.27,497.25 367.78,502.65 369.10,506.50 C371.50,513.50 371.50,513.51 371.50,560.50 L 371.50 607.50 L 354.75 607.77 L 338.00 608.05 L 338.00 569.04 C338.00,528.59 337.67,524.57 333.65,516.14 C329.87,508.21 321.63,504.00 309.90,504.00 C301.37,504.00 293.92,507.05 289.12,512.51 C282.42,520.14 282.55,519.20 282.00,565.50 L 281.50 607.50 L 264.94 607.77 C255.83,607.92 248.07,607.74 247.69,607.36 ZM 646.62 606.44 C646.28,605.56 646.00,575.62 646.00,539.92 L 646.00 475.00 L 662.53 475.00 C681.58,475.00 680.46,474.36 680.49,485.25 C680.49,488.96 680.60,492.00 680.73,492.00 C680.86,492.00 681.85,490.25 682.95,488.11 C685.21,483.66 691.23,478.17 696.74,475.52 C698.81,474.52 701.28,473.32 702.24,472.85 C705.01,471.49 723.36,471.81 725.34,473.26 C726.85,474.37 727.02,476.31 726.78,490.01 L 726.50 505.50 L 723.50 505.23 C715.37,504.49 705.06,504.78 701.29,505.85 C694.70,507.73 688.93,512.75 685.00,520.03 L 681.50 526.50 L 681.00 567.00 L 680.50 607.50 L 663.87 607.77 C649.36,608.01 647.15,607.84 646.62,606.44 ZM 744.58 606.26 C743.80,603.80 744.66,477.36 745.47,476.06 C745.88,475.39 751.80,475.00 761.58,475.00 L 777.05 475.00 L 778.02 477.57 C778.56,478.98 779.00,481.76 779.00,483.75 L 779.00 487.37 L 781.75 484.79 C786.21,480.60 793.83,476.22 800.59,473.97 C805.79,472.24 808.72,471.94 817.20,472.24 C844.06,473.22 860.53,485.56 867.59,510.00 C869.30,515.93 869.47,520.49 869.48,562.00 L 869.50 607.50 L 852.25 607.77 L 835.00 608.05 L 835.00 567.84 C835.00,544.79 834.59,526.33 834.03,524.57 C833.50,522.88 832.82,520.26 832.51,518.75 C832.21,517.23 830.06,514.03 827.73,511.64 C817.41,501.01 795.74,501.56 785.95,512.71 C780.05,519.43 779.66,522.50 779.05,567.00 L 778.50 607.50 L 761.82 607.77 C746.56,608.02 745.10,607.90 744.58,606.26 ZM 188.41 453.57 C183.07,451.14 180.31,448.08 177.61,441.63 C175.57,436.72 175.57,432.61 177.63,426.59 C181.76,414.45 196.83,408.57 209.67,414.07 C216.02,416.79 217.81,418.50 220.63,424.50 C224.92,433.63 223.01,443.27 215.62,449.76 C207.97,456.48 197.90,457.89 188.41,453.57 Z" fill="rgb(249,250,251)"/>
</g>
</svg>
